<?xml version="1.0" encoding="UTF-8"?>
<svg id="Layer_1" data-name="Layer 1" xmlns="http://www.w3.org/2000/svg" viewBox="0 0 360 360">
  <defs>
    <style>
      .cls-1 {
        stroke-linecap: round;
        stroke-width: 8px;
      }

      .cls-1, .cls-2, .cls-3 {
        fill: #fff;
        stroke: #fff;
      }

      .cls-1, .cls-3 {
        stroke-miterlimit: 10;
      }

      .cls-2 {
        font-family: CirceRounded-Regular, 'Circe Rounded';
        font-size: 73.27px;
      }

      .cls-3 {
        stroke-width: 3px;
      }
    </style>
  </defs>
  <text class="cls-2" transform="translate(.31 336.28)"><tspan x="0" y="0">Open</tspan></text>
  <text class="cls-2" transform="translate(177.18 336.28)"><tspan x="0" y="0">Camp</tspan></text>
  <path class="cls-3" d="M22.7,266.62L181.5,44.53c.22-.31,.69-.31,.91,0l157.32,221.73c.37,.52,0,1.24-.64,1.24h-114.12c-.23,0-.43-.14-.52-.35l-30.38-75.38c-4.39-10.9-19.82-10.89-24.21,0l-30.32,75.37c-.09,.21-.29,.35-.52,.35H23.15c-.45,0-.72-.51-.45-.88Z"/>
  <line class="cls-1" x1="166.51" y1="70.65" x2="202.63" y2="18.83"/>
  <line class="cls-1" x1="195.12" y1="70.56" x2="159" y2="18.74"/>
</svg>